<svg xmlns="http://www.w3.org/2000/svg" width="468.003" height="335.567" viewBox="0 0 468.003 335.567">
  <g id="Group_1227" data-name="Group 1227" transform="translate(0 0)">
    <rect id="Rectangle_2000" data-name="Rectangle 2000" width="239.56" height="1.033" transform="translate(115.44 333.798)" fill="#3f3d56"/>
    <path id="Path_2286" data-name="Path 2286" d="M382.361,165.854h-1.844v-50.51a29.234,29.234,0,0,0-29.234-29.234H244.272a29.234,29.234,0,0,0-29.234,29.234v277.1a29.234,29.234,0,0,0,29.234,29.234H351.283a29.234,29.234,0,0,0,29.234-29.234V201.808h1.844Z" transform="translate(-215.038 -86.111)" fill="#393e46"/>
    <path id="Path_2287" data-name="Path 2287" d="M361.891,102.606H347.923a10.372,10.372,0,0,1-9.6,14.289H277.014a10.372,10.372,0,0,1-9.6-14.289H254.364a21.831,21.831,0,0,0-21.831,21.831V401.131a21.831,21.831,0,0,0,21.831,21.831H361.891a21.831,21.831,0,0,0,21.831-21.831V124.437a21.831,21.831,0,0,0-21.831-21.831Z" transform="translate(-224.466 -95)" fill="#fff"/>
    <rect id="Rectangle_2001" data-name="Rectangle 2001" width="113.427" height="97.289" transform="translate(26.948 50.827)" fill="#e6e6e6"/>
    <circle id="Ellipse_419" data-name="Ellipse 419" cx="8.3" cy="8.3" r="8.3" transform="translate(52.308 151.805)" fill="#f8b500"/>
    <path id="Path_2288" data-name="Path 2288" d="M130.745,341.692h-3.458v-3.458H125.9v3.458h-3.458v1.383H125.9v3.458h1.383v-3.458h3.458Z" transform="translate(-65.987 -182.279)" fill="#fff"/>
    <circle id="Ellipse_420" data-name="Ellipse 420" cx="8.3" cy="8.3" r="8.3" transform="translate(96.111 151.805)" fill="#f8b500"/>
    <rect id="Rectangle_2002" data-name="Rectangle 2002" width="1.383" height="8.3" transform="translate(108.56 159.413) rotate(90)" fill="#fff"/>
    <path id="Path_2289" data-name="Path 2289" d="M393.792,222.66h-8.964a1.188,1.188,0,0,0-1.188,1.188v3.934a1.188,1.188,0,0,0,1.188,1.188h1.485v5.9h5.993v-5.9h1.485a1.188,1.188,0,0,0,1.188-1.188v-3.934a1.188,1.188,0,0,0-1.188-1.188Z" transform="translate(-305.9 -159.699)" fill="#f8b500"/>
    <path id="Path_2290" data-name="Path 2290" d="M393.126,265.7a46.083,46.083,0,0,1-8.017-27.322.972.972,0,0,0-.759-.97v-1.7h-9.467v1.676h-.13a.971.971,0,0,0-.97.973q0,.035,0,.071a42.056,42.056,0,0,1-7.555,27.97,2.677,2.677,0,0,0-.484,1.622l1.035,32.02a2.772,2.772,0,0,0,2.748,2.675h21.412a2.773,2.773,0,0,0,2.75-2.722l.4-31.089a5.611,5.611,0,0,0-.964-3.2Z" transform="translate(-296.256 -166.73)" fill="#393e46"/>
    <path id="Path_2291" data-name="Path 2291" d="M395.612,225.44a2.564,2.564,0,1,1-5.128,0" transform="translate(-309.589 -161.197)" opacity="0.2" style="isolation: isolate"/>
    <path id="Path_2292" data-name="Path 2292" d="M393.757,317.077h-2.593a6.805,6.805,0,0,0-13.452,0H375.12a1.913,1.913,0,0,0-1.891,2.2l2.816,18.307h16.172l3.421-18.245a1.914,1.914,0,0,0-1.881-2.266Z" transform="translate(-300.277 -207.473)" fill="#f8b500"/>
    <rect id="Rectangle_2003" data-name="Rectangle 2003" width="113.427" height="97.289" transform="translate(26.948 187.769)" fill="#e6e6e6"/>
    <circle id="Ellipse_421" data-name="Ellipse 421" cx="8.3" cy="8.3" r="8.3" transform="translate(52.308 288.747)" fill="#f8b500"/>
    <path id="Path_2293" data-name="Path 2293" d="M130.745,638.692h-3.458v-3.458H125.9v3.458h-3.458v1.383H125.9v3.458h1.383v-3.458h3.458Z" transform="translate(-65.987 -342.337)" fill="#fff"/>
    <circle id="Ellipse_422" data-name="Ellipse 422" cx="8.3" cy="8.3" r="8.3" transform="translate(96.111 288.747)" fill="#f8b500"/>
    <rect id="Rectangle_2004" data-name="Rectangle 2004" width="1.383" height="8.3" transform="translate(108.56 296.355) rotate(90)" fill="#fff"/>
    <path id="Path_2294" data-name="Path 2294" d="M378.163,579.855h.063a10.623,10.623,0,0,0,9.947-6.663,34.773,34.773,0,1,0-46.323,19.047,10.533,10.533,0,0,0,11.7-2.169A34.658,34.658,0,0,1,378.163,579.855Z" transform="translate(-272.172 -322.97)" fill="#fff"/>
    <circle id="Ellipse_423" data-name="Ellipse 423" cx="11.484" cy="11.484" r="11.484" transform="translate(76.643 223.39)" fill="#f9a825"/>
    <g id="Group_1229" data-name="Group 1229" transform="translate(94 0)">
      <path id="Path_2352" data-name="Path 2352" d="M530.125,257.913S484.4,280.619,476.2,277.465s-11.038-31.22-11.038-31.22l33.743-6.307Z" transform="translate(-284.469 -163.531)" fill="#f8b500"/>
      <path id="Path_2353" data-name="Path 2353" d="M530.125,257.913S484.4,280.619,476.2,277.465s-11.038-31.22-11.038-31.22l33.743-6.307Z" transform="translate(-284.469 -163.531)" opacity="0.1"/>
      <rect id="Rectangle_2023" data-name="Rectangle 2023" width="29.959" height="26.175" transform="translate(150.891 60.482)" fill="#ff6584"/>
      <rect id="Rectangle_2024" data-name="Rectangle 2024" width="29.959" height="26.175" transform="translate(150.891 60.482)" opacity="0.1"/>
      <path id="Path_2354" data-name="Path 2354" d="M562.318,459.6s1.261,27.436-7.253,26.805,0-25.859,0-25.859Z" transform="translate(-354.19 -287.642)" fill="#fbbebe"/>
      <path id="Path_2355" data-name="Path 2355" d="M637.619,212.389s-1.892,11.984,1.577,13.56,5.676,2.838,5.676,2.838l-7.884,5.361-14.506.946-3.784-2.838-3.469-3.154s5.676-1.261,5.676-4.1.315-11.353.315-11.353Z" transform="translate(-464.496 -147.966)" fill="#fbbebe"/>
      <path id="Path_2356" data-name="Path 2356" d="M637.619,212.389s-1.892,11.984,1.577,13.56,5.676,2.838,5.676,2.838l-7.884,5.361-14.506.946-3.784-2.838-3.469-3.154s5.676-1.261,5.676-4.1.315-11.353.315-11.353Z" transform="translate(-464.496 -147.966)" opacity="0.1"/>
      <path id="Path_2357" data-name="Path 2357" d="M548.413,470.477s9.145,29.328,9.145,50.773c0,0,15.137,34.059,14.506,50.773l3.784,23.021-5.361,1.892-4.1-3.469s-1.261-12.3-5.361-18.291-13.56-34.374-13.56-34.374-25.229-52.98-24.283-60.549S548.413,470.477,548.413,470.477Z" transform="translate(-355.422 -293.786)" fill="#fbbebe"/>
      <path id="Path_2358" data-name="Path 2358" d="M658.6,455.253s-5.992,2.838,2.523,53.3c0,0-4.73,33.428-.631,51.719l.631,18.291h6.622l1.261-1.892s.315-16.4,2.523-20.814,4.1-29.959,4.1-29.959,10.091-52.034,7.884-56.449S658.6,455.253,658.6,455.253Z" transform="translate(-521.426 -285.184)" fill="#fbbebe"/>
      <path id="Path_2359" data-name="Path 2359" d="M521.462,744.514s-2.208,5.046-6.307,3.784a24.4,24.4,0,0,0-5.046-1.261s2.838,14.506,1.892,21.444.631,11.353,6.938,11.353,7.253-7.569,7.253-7.569l-2.838-17.975Z" transform="translate(-300.088 -448.618)" fill="#2f2e41"/>
      <path id="Path_2360" data-name="Path 2360" d="M700.774,726.39s-2.208,4.415-5.677,3.469-4.73-2.523-4.73-2.523.315,9.776-.946,14.191-4.1,17.029,2.523,17.66a8.514,8.514,0,0,0,8.83-5.046Z" transform="translate(-551.933 -438.377)" fill="#2f2e41"/>
      <ellipse id="Ellipse_481" data-name="Ellipse 481" cx="13.876" cy="13.876" rx="13.876" ry="13.876" transform="translate(150.733 44.871)" fill="#fbbebe"/>
      <path id="Path_2361" data-name="Path 2361" d="M584.226,250.666s10.991-4.316,14.956-3.735a16.208,16.208,0,0,0,12.48,3.735c7.569-.946,10.528-4.578,10.528-4.578s20.377,4.578,19.115,6.47-6.938,32.8-6.938,32.8-3.784,26.805.631,35.951,6.622,24.283,4.73,25.544-23.021,6.938-25.544,8.515-3.469-3.784-5.046-2.838-5.046,2.523-7.253,1.261-23.652-12.614-23.021-14.822,8.83-29.013,11.668-34.374.631-16.714-.946-18.922-4.73-4.73-5.361-11.038S584.226,250.666,584.226,250.666Z" transform="translate(-445.161 -167.005)" fill="#393e46"/>
      <path id="Path_2362" data-name="Path 2362" d="M553.356,258.721a10.841,10.841,0,0,1,3.533,6.02c.946,4.1,2.208,36.9,2.208,36.9s11.668,45.1,9.145,46.042-9.776,2.838-10.722,1.892-11.668-39.1-10.722-43.2-1.261-16.083-1.261-16.083Z" transform="translate(-357.906 -174.143)" fill="#393e46"/>
      <path id="Path_2363" data-name="Path 2363" d="M676.751,387.41s17.029-8.515,18.922-2.838S677.7,396.24,677.7,396.24s-6.938-2.523-6.938-4.1S676.751,387.41,676.751,387.41Z" transform="translate(-539.578 -244.147)" fill="#fbbebe"/>
      <path id="Path_2364" data-name="Path 2364" d="M731.465,257.675,728,256.414s-1.892-1.261-4.1,3.469-26.175,32.482-21.76,41.312S721.059,328,721.689,326.739s7.884-10.722,6.622-11.668-15.768-13.876-13.876-15.768,9.776-17.975,14.191-18.606S731.465,257.675,731.465,257.675Z" transform="translate(-588.931 -172.753)" fill="#393e46"/>
      <path id="Path_2365" data-name="Path 2365" d="M194.864,147.123s48.088-19.336,89.716-37.942c0,0,21.76-5.361,33.113,4.73,0,0-9.461-1.261-9.461,4.1,0,0-8.2,10.722,17.345,12.614,17.79,1.318,24.872,11.966,27.533,18.309a25.771,25.771,0,0,0,10.422,12.254c6.149,3.675,15.06,6.378,25.432,1.6,0,0-.59.907-1.708,2.417-20.027,27.045-94.6,50.582-120.939,29.631-16.275-12.948-42.076-29.312-60.572-21.07-29.013,12.93-34.374,7.253-34.374,7.253l-1.261-3.469s28.067-7.569,28.7-17.345S194.864,147.123,194.864,147.123Z" transform="translate(-14.96 -88.849)" fill="#f8b500"/>
      <path id="Path_2366" data-name="Path 2366" d="M685.678,204.052s-6.78,2.681-8.042,11.511c0,0-7.253,14.191.946,17.66s9.776,2.523,9.776,2.523v-1.577s-8.83-5.361-6.938-9.461S685.678,204.052,685.678,204.052Z" transform="translate(-533.841 -143.255)" fill="#f8b500"/>
      <path id="Path_2367" data-name="Path 2367" d="M660.391,285.868s-2.208-5.676-1.577-5.676-2.566-3.491-3.806-2.219-3.447,5.057-.925,6S660.391,285.868,660.391,285.868Z" transform="translate(-496.413 -184.863)" fill="#f8b500"/>
      <path id="Path_2368" data-name="Path 2368" d="M669.423,279.247s5.765-1.966,5.738-1.335,3.6-2.416,2.378-3.709-4.907-3.658-5.958-1.178S669.423,279.247,669.423,279.247Z" transform="translate(-520.987 -181.611)" fill="#f8b500"/>
      <path id="Path_2369" data-name="Path 2369" d="M666.651,268.279s-2.879-1.616-4.593.926,2.07,6.958,4.593,6.958,2.523-5.361,2.523-5.361Z" transform="translate(-508.98 -179.257)" fill="#f8b500"/>
      <path id="Path_2370" data-name="Path 2370" d="M666.651,268.279s-2.879-1.616-4.593.926,2.07,6.958,4.593,6.958,2.523-5.361,2.523-5.361Z" transform="translate(-508.98 -179.257)" opacity="0.1"/>
      <path id="Path_2371" data-name="Path 2371" d="M633.185,141.885a17.027,17.027,0,0,1,4.273,4.8,21.529,21.529,0,0,1,1.355,3.3c1.275,3.67,4.445,7.387,3.1,11.034-.383,1.04-.98,2.138-.637,3.192.3.936,1.246,1.483,1.926,2.194,1.46,1.527,1.706,3.819,1.8,5.931.163,3.867-1.963,8.423-4.532,11.318a15.813,15.813,0,0,0-1.546,1.75,4.1,4.1,0,0,0-.484,3.375l-3.742-.781a31.05,31.05,0,0,0-.126,4.158,3.882,3.882,0,0,1-4.116-2.66,11.114,11.114,0,0,1-1.028,2.841,14.665,14.665,0,0,1-2.486-4.6,13.162,13.162,0,0,1-.446-6.646,28.186,28.186,0,0,1,1.611-4.724c1.322-3.342,2.4-6.774,3.481-10.2a14.206,14.206,0,0,0,.957-5.478l-1.33-.145a6.35,6.35,0,0,0-.42-2.146,7.874,7.874,0,0,0-2.224.837l-1.533-3.89a8.833,8.833,0,0,1-3.854,1.962l-5.285,1.664-.032-1.046a27.124,27.124,0,0,1-7.52,4.717,1.711,1.711,0,0,0,.371-1.361c-1.3,2.333-.781,5.239.022,7.787s1.87,5.142,1.546,7.794c-.242,1.984-1.258,3.881-1.07,5.87.093.98.476,1.912.6,2.889.284,2.33-.941,4.548-2.123,6.575l-2.3-3.157a12.092,12.092,0,0,0-2.9-3.126c-1.223-.811-2.739-1.175-3.8-2.183-1.9-1.8-1.661-4.868-1.042-7.413a12.883,12.883,0,0,0,.606-4.113c-.2-2.352-1.839-4.3-2.759-6.471a11.234,11.234,0,0,1,.63-9.876c1.142-1.959,2.868-3.536,3.944-5.532s1.48-4.351,2.948-6.065a10.232,10.232,0,0,1,2.471-1.969,32.214,32.214,0,0,1,13.705-4.471C625.784,137.329,629.662,138.981,633.185,141.885Z" transform="translate(-456.546 -105.781)" fill="#ff6584"/>
    </g>
  </g>
</svg>
