<svg id="Group_1225" data-name="Group 1225" xmlns="http://www.w3.org/2000/svg" width="355" height="296.299" viewBox="0 0 355 296.299">
  <rect id="Rectangle_1954" data-name="Rectangle 1954" width="55.459" height="0.792" transform="translate(163.703 14.224)" fill="#f2f2f2"/>
  <rect id="Rectangle_1955" data-name="Rectangle 1955" width="0.792" height="7.329" transform="translate(203.316 14.819)" fill="#f2f2f2"/>
  <rect id="Rectangle_1956" data-name="Rectangle 1956" width="0.792" height="7.329" transform="translate(179.152 14.819)" fill="#f2f2f2"/>
  <rect id="Rectangle_1957" data-name="Rectangle 1957" width="55.459" height="0.792" transform="translate(191.829 52.253)" fill="#f2f2f2"/>
  <rect id="Rectangle_1958" data-name="Rectangle 1958" width="0.792" height="7.329" transform="translate(206.882 45.123)" fill="#f2f2f2"/>
  <rect id="Rectangle_1959" data-name="Rectangle 1959" width="0.792" height="7.329" transform="translate(231.046 45.123)" fill="#f2f2f2"/>
  <rect id="Rectangle_1960" data-name="Rectangle 1960" width="55.459" height="0.792" transform="translate(265.51 70.08)" fill="#f2f2f2"/>
  <rect id="Rectangle_1961" data-name="Rectangle 1961" width="0.792" height="7.329" transform="translate(280.563 62.949)" fill="#f2f2f2"/>
  <rect id="Rectangle_1962" data-name="Rectangle 1962" width="0.792" height="7.329" transform="translate(304.727 62.949)" fill="#f2f2f2"/>
  <rect id="Rectangle_1963" data-name="Rectangle 1963" width="55.459" height="0.792" transform="translate(259.964 253.887)" fill="#f2f2f2"/>
  <rect id="Rectangle_1964" data-name="Rectangle 1964" width="0.792" height="7.329" transform="translate(275.017 246.757)" fill="#f2f2f2"/>
  <rect id="Rectangle_1965" data-name="Rectangle 1965" width="0.792" height="7.329" transform="translate(299.182 246.757)" fill="#f2f2f2"/>
  <rect id="Rectangle_1966" data-name="Rectangle 1966" width="55.459" height="0.792" transform="translate(165.287 126.727)" fill="#f2f2f2"/>
  <rect id="Rectangle_1967" data-name="Rectangle 1967" width="0.792" height="7.329" transform="translate(180.341 119.597)" fill="#f2f2f2"/>
  <rect id="Rectangle_1968" data-name="Rectangle 1968" width="0.792" height="7.329" transform="translate(204.505 119.597)" fill="#f2f2f2"/>
  <rect id="Rectangle_1969" data-name="Rectangle 1969" width="55.459" height="0.792" transform="translate(182.717 222.196)" fill="#f2f2f2"/>
  <rect id="Rectangle_1970" data-name="Rectangle 1970" width="0.792" height="7.329" transform="translate(197.771 215.066)" fill="#f2f2f2"/>
  <rect id="Rectangle_1971" data-name="Rectangle 1971" width="0.792" height="7.329" transform="translate(221.935 215.066)" fill="#f2f2f2"/>
  <rect id="Rectangle_1972" data-name="Rectangle 1972" width="55.459" height="0.792" transform="translate(271.452 193.278)" fill="#f2f2f2"/>
  <rect id="Rectangle_1973" data-name="Rectangle 1973" width="0.792" height="7.329" transform="translate(286.505 186.148)" fill="#f2f2f2"/>
  <rect id="Rectangle_1974" data-name="Rectangle 1974" width="0.792" height="7.329" transform="translate(310.669 186.148)" fill="#f2f2f2"/>
  <path id="Path_2227" data-name="Path 2227" d="M219.074,637.669h-93.8v-.675H218.4V604.266H133.159l-4.141-8.627.608-.292,3.957,8.244h85.489Z" transform="translate(-75.648 -359.508)" fill="#2f2e41"/>
  <circle id="Ellipse_410" data-name="Ellipse 410" cx="7.086" cy="7.086" r="7.086" transform="translate(55.024 280.523)" fill="#3f3d56"/>
  <circle id="Ellipse_411" data-name="Ellipse 411" cx="7.086" cy="7.086" r="7.086" transform="translate(124.868 280.523)" fill="#3f3d56"/>
  <circle id="Ellipse_412" data-name="Ellipse 412" cx="4.386" cy="4.386" r="4.386" transform="translate(209.895 132.738)" fill="#3f3d56"/>
  <path id="Path_2228" data-name="Path 2228" d="M343.893,552.1H238.461l-22.813-74.567H367.386l-.138.439Zm-104.932-.675H343.4l23.069-73.218H216.561Z" transform="translate(-190.435 -318.476)" fill="#2f2e41"/>
  <path id="Path_2229" data-name="Path 2229" d="M194.9,479.147H102.3L82.26,413.015H215.537l-.121.389Z" transform="translate(-49.674 -249.405)" fill="#f8b500"/>
  <path id="Path_2230" data-name="Path 2230" d="M450.47,358.851l-.652-.173,4.453-16.784h25.9v.675H454.79Z" transform="translate(-271.629 -206.457)" fill="#2f2e41"/>
  <rect id="Rectangle_1975" data-name="Rectangle 1975" width="136.783" height="0.675" transform="translate(32.586 181.662)" fill="#2f2e41"/>
  <rect id="Rectangle_1976" data-name="Rectangle 1976" width="121.344" height="0.675" transform="translate(40.192 206.523)" fill="#2f2e41"/>
  <rect id="Rectangle_1977" data-name="Rectangle 1977" width="0.675" height="73.893" transform="translate(100.743 159.393)" fill="#2f2e41"/>
  <rect id="Rectangle_1978" data-name="Rectangle 1978" width="74.049" height="0.675" transform="matrix(0.065, -0.998, 0.998, 0.065, 126.787, 233.263)" fill="#2f2e41"/>
  <rect id="Rectangle_1979" data-name="Rectangle 1979" width="0.675" height="74.049" transform="translate(69.871 159.414) rotate(-3.729)" fill="#2f2e41"/>
  <rect id="Rectangle_1980" data-name="Rectangle 1980" width="355" height="1" transform="translate(0 294.764)" fill="#2f2e41"/>
  <path id="Path_2231" data-name="Path 2231" d="M747.411,136.172s5.791,16.482,2.227,19.017,12.027,23.244,12.027,23.244l18.709-5.071-10.245-17.327s-1.336-17.327-1.336-19.863S747.411,136.172,747.411,136.172Z" transform="translate(-511.547 -111.661)" fill="#a0616a"/>
  <path id="Path_2232" data-name="Path 2232" d="M747.411,136.172s5.791,16.482,2.227,19.017,12.027,23.244,12.027,23.244l18.709-5.071-10.245-17.327s-1.336-17.327-1.336-19.863S747.411,136.172,747.411,136.172Z" transform="translate(-511.547 -111.661)" opacity="0.1"/>
  <path id="Path_2233" data-name="Path 2233" d="M721.728,415.466s-1.69,21.13,0,32.118S725.955,489,725.955,489s0,57.475,9.3,58.32,16.059,1.691,16.9-1.69-4.226-5.071-1.691-6.762,3.381-7.607,0-14.369,0-75.224,0-75.224l16.059,43.106s1.69,35.5,3.381,40.571-1.69,14.369,4.226,15.214,12.678-4.226,16.059-5.917-5.071-1.69-3.381-2.536,6.762-3.381,5.071-4.226-3.381-41.416-3.381-41.416-4.649-86.635-10.565-90.016-9.72,2.443-9.72,2.443Z" transform="translate(-495.584 -273.469)" fill="#e0e0e0"/>
  <path id="Path_2234" data-name="Path 2234" d="M756.126,758.784v6.762s-7.607,18.381,0,18.381,13.524,1.9,13.524-.631V760.474Z" transform="translate(-514.768 -488.314)" fill="#2f2e41"/>
  <path id="Path_2235" data-name="Path 2235" d="M866.55,758.754v6.762s7.607,18.38,0,18.38-13.523,1.9-13.523-.631V760.444Z" transform="translate(-575.324 -488.296)" fill="#2f2e41"/>
  <circle id="Ellipse_413" data-name="Ellipse 413" cx="15.214" cy="15.214" r="15.214" transform="translate(232.483 6.339)" fill="#a0616a"/>
  <path id="Path_2236" data-name="Path 2236" d="M762.97,201.9s4.226,12.678,10.988,10.143l6.762-2.536,11.833,81.141s-9.3,13.523-22.821,5.071S762.97,201.9,762.97,201.9Z" transform="translate(-519.922 -152.032)" fill="#f8b500"/>
  <path id="Path_2237" data-name="Path 2237" d="M795.418,183.259l3.8-8.03s22.4,10.565,25.779,13.946,3.381,8.452,3.381,8.452l-5.917,21.13s1.69,46.487,1.69,48.177,5.917,10.988,1.69,7.607-5.071-6.762-8.452-1.69-10.988,10.988-10.988,10.988Z" transform="translate(-540.537 -135.927)" fill="#393e46"/>
  <path id="Path_2238" data-name="Path 2238" d="M847.445,349.122l-2.536,23.666s-15.214,13.523-11.833,14.369,5.071-2.536,5.071-2.536,5.917,5.917,9.3,2.536,11.833-35.5,11.833-35.5Z" transform="translate(-562.981 -240.934)" fill="#a0616a"/>
  <path id="Path_2239" data-name="Path 2239" d="M751.194,76.066c-3.373-.121-6.982-.18-9.826,1.637a14.384,14.384,0,0,0-3.4,3.324c-2.77,3.5-5.163,7.907-4.134,12.251l1.195-.466a7.825,7.825,0,0,1-.755,3.352c.168-.489.732.3.581.8l-1.316,4.318a4.065,4.065,0,0,1,5.185,3.094c.15-5.016.671-10.767,4.739-13.7,2.052-1.481,4.648-1.933,7.147-2.335,2.3-.37,4.721-.724,6.929.035s4.088,3.017,3.587,5.3a2.359,2.359,0,0,1,2.659,1.311,6.886,6.886,0,0,1,.545,3.151c1.085.767,2.32-.756,2.762-2.009,1.038-2.941,1.961-6.072,1.4-9.14s-3.059-6-6.178-6.011a2.165,2.165,0,0,0,.563-1.525l-2.571-.217a2.841,2.841,0,0,0,1.7-.9C760.978,79.467,752.863,76.125,751.194,76.066Z" transform="translate(-503.173 -76.014)" fill="#2f2e41"/>
  <path id="Path_2240" data-name="Path 2240" d="M723.35,179.422s-6.881-6.743-9.357-6.33-5.857,6.33-5.857,6.33-20.285,6.762-19.44,13.523,10.143,39.725,10.143,39.725,7.607,39.725.845,43.951,32.118,15.214,32.964,10.143,2.536-55.784,0-63.391S723.35,179.422,723.35,179.422Z" transform="translate(-476.076 -134.625)" fill="#393e46"/>
  <path id="Path_2241" data-name="Path 2241" d="M850.893,223.236h10.451s7.3,32.118,8.144,35.5,2.536,19.44,1.691,19.44-17.75-3.381-17.75-.845Z" transform="translate(-574.036 -164.916)" fill="#393e46"/>
  <path id="Path_2242" data-name="Path 2242" d="M784.358,344.908h-40.01c-3.9-17.961-4.231-35.314,0-51.894h40.01C777.9,309.3,777.5,326.53,784.358,344.908Z" transform="translate(-507.854 -207.053)" fill="#f2f2f2"/>
  <path id="Path_2243" data-name="Path 2243" d="M707.938,356.887l11.833,5.071s22.821,3.381,22.821-5.917-22.821-4.226-22.821-4.226l-7.607-2.432Z" transform="translate(-487.711 -241.092)" fill="#a0616a"/>
  <path id="Path_2244" data-name="Path 2244" d="M686.132,210.435l-10.143,2.536-7.607,44.8s-2.536,11.833,1.691,12.678,16.059,7.607,16.059,7.607,1.69-12.678,5.071-12.678l-8.452-6.762,5.071-29.583Z" transform="translate(-463.369 -157.186)" fill="#393e46"/>
  <rect id="Rectangle_1981" data-name="Rectangle 1981" width="55.459" height="0.792" transform="translate(23.867 139.8)" fill="#f2f2f2"/>
  <rect id="Rectangle_1982" data-name="Rectangle 1982" width="0.792" height="7.329" transform="translate(38.92 132.669)" fill="#f2f2f2"/>
  <rect id="Rectangle_1983" data-name="Rectangle 1983" width="0.792" height="7.329" transform="translate(63.084 132.669)" fill="#f2f2f2"/>
  <rect id="Rectangle_1984" data-name="Rectangle 1984" width="55.459" height="0.792" transform="translate(43.277 22.543)" fill="#f2f2f2"/>
  <rect id="Rectangle_1985" data-name="Rectangle 1985" width="0.792" height="7.329" transform="translate(82.891 23.137)" fill="#f2f2f2"/>
  <rect id="Rectangle_1986" data-name="Rectangle 1986" width="0.792" height="7.329" transform="translate(58.727 23.137)" fill="#f2f2f2"/>
  <rect id="Rectangle_1987" data-name="Rectangle 1987" width="55.459" height="0.792" transform="translate(99.133 100.582)" fill="#f2f2f2"/>
  <rect id="Rectangle_1988" data-name="Rectangle 1988" width="0.792" height="7.329" transform="translate(138.746 101.176)" fill="#f2f2f2"/>
  <rect id="Rectangle_1989" data-name="Rectangle 1989" width="0.792" height="7.329" transform="translate(114.582 101.176)" fill="#f2f2f2"/>
  <rect id="Rectangle_1990" data-name="Rectangle 1990" width="55.459" height="0.792" transform="translate(4.852 100.186)" fill="#f2f2f2"/>
  <rect id="Rectangle_1991" data-name="Rectangle 1991" width="0.792" height="7.329" transform="translate(44.466 100.78)" fill="#f2f2f2"/>
  <rect id="Rectangle_1992" data-name="Rectangle 1992" width="0.792" height="7.329" transform="translate(20.301 100.78)" fill="#f2f2f2"/>
  <rect id="Rectangle_1993" data-name="Rectangle 1993" width="55.459" height="0.792" transform="translate(71.403 60.572)" fill="#f2f2f2"/>
  <rect id="Rectangle_1994" data-name="Rectangle 1994" width="0.792" height="7.329" transform="translate(86.456 53.442)" fill="#f2f2f2"/>
  <rect id="Rectangle_1995" data-name="Rectangle 1995" width="0.792" height="7.329" transform="translate(110.621 53.442)" fill="#f2f2f2"/>
</svg>
