<svg xmlns="http://www.w3.org/2000/svg" width="355" height="298.073" viewBox="0 0 355 298.073">
  <g id="Group_1226" data-name="Group 1226" transform="translate(0 0)">
    <path id="Path_2245" data-name="Path 2245" d="M186.829,198.594c-.956,0-1.921-.015-2.869-.045l.022-.688c1.361.042,2.75.054,4.117.035l.009.689Q187.47,198.594,186.829,198.594Zm5.424-.16-.04-.688c1.363-.08,2.743-.193,4.1-.336l.072.685C195.018,198.239,193.627,198.353,192.254,198.434Zm-12.435-.107c-1.374-.105-2.763-.243-4.128-.411l.084-.684c1.354.166,2.732.3,4.1.407Zm20.684-.758-.1-.681c1.354-.206,2.719-.444,4.055-.71l.134.676C203.241,197.122,201.867,197.362,200.5,197.569Zm-28.916-.252c-1.358-.23-2.728-.495-4.073-.787l.146-.674c1.335.29,2.695.552,4.042.781Zm37.051-1.365-.166-.669c1.329-.329,2.666-.692,3.973-1.08l.2.661C211.323,195.255,209.976,195.621,208.637,195.952Zm-45.156-.395c-1.332-.354-2.672-.744-3.983-1.159l.208-.657c1.3.411,2.631.8,3.953,1.149Zm53.108-1.964-.226-.651c1.29-.448,2.587-.933,3.856-1.441l.256.64c-1.279.512-2.586,1-3.886,1.452Zm-61.027-.54c-1.293-.475-2.595-.988-3.868-1.525l.267-.635c1.263.532,2.555,1.041,3.838,1.513Zm68.719-2.538-.285-.627c1.239-.563,2.484-1.164,3.7-1.786l.314.614c-1.226.627-2.481,1.232-3.729,1.8Zm7.372-3.768-.341-.6c1.188-.678,2.374-1.39,3.524-2.118l.368.582c-1.159.733-2.354,1.452-3.551,2.134Zm7-4.429-.394-.565c1.119-.782,2.235-1.6,3.318-2.432l.42.546C240.907,180.706,239.782,181.53,238.654,182.317Zm-105.013-.97c-1.112-.808-2.223-1.654-3.3-2.515l.43-.538c1.071.855,2.173,1.695,3.277,2.5Zm111.585-4.081-.444-.527c1.043-.88,2.08-1.8,3.084-2.725l.468.506C247.323,175.456,246.277,176.38,245.226,177.266Zm-118.07-1.1c-1.036-.907-2.065-1.85-3.058-2.8l.477-.5c.986.947,2.007,1.883,3.035,2.783Zm124.159-4.534-.491-.484c.961-.974,1.912-1.982,2.825-3l.512.461C253.241,169.638,252.283,170.653,251.315,171.635Zm-130.143-1.21c-.95-1-1.889-2.032-2.789-3.07l.52-.451c.894,1.03,1.825,2.055,2.768,3.046Zm135.7-4.954-.532-.437c.868-1.057,1.723-2.147,2.542-3.241l.552.412c-.825,1.1-1.686,2.2-2.561,3.266Zm-141.132-1.308c-.853-1.078-1.694-2.191-2.5-3.309l.559-.4c.8,1.109,1.632,2.213,2.479,3.284Zm146.1-5.339-.57-.387c.768-1.131,1.521-2.3,2.237-3.462l.587.361c-.722,1.174-1.48,2.348-2.254,3.488ZM110.9,157.436c-.751-1.151-1.485-2.335-2.184-3.521l.593-.35c.693,1.176,1.423,2.352,2.168,3.494Zm155.29-5.688-.6-.333c.661-1.2,1.3-2.426,1.911-3.654l.618.305C267.5,149.3,266.851,150.542,266.185,151.748Zm3.68-7.449-.631-.277c.549-1.254,1.076-2.538,1.567-3.816l.643.247C270.949,141.742,270.417,143.036,269.864,144.3Zm-166.705-1.487c-.528-1.268-1.034-2.565-1.5-3.855l.648-.236c.466,1.281.968,2.568,1.492,3.826Zm169.685-6.275-.654-.217c.43-1.3.836-2.62,1.206-3.936l.663.186C273.686,133.9,273.277,135.232,272.844,136.538Zm-172.515-1.51c-.41-1.313-.8-2.654-1.145-3.987l.666-.175c.347,1.323.729,2.654,1.136,3.957Zm174.761-6.475-.671-.156c.309-1.328.59-2.684.838-4.03l.678.124c-.25,1.357-.534,2.723-.845,4.062ZM98.224,127c-.287-1.346-.547-2.717-.773-4.075l.68-.113c.224,1.349.482,2.709.767,4.045ZM276.591,120.4l-.683-.094c.185-1.349.342-2.725.465-4.09l.686.062c-.125,1.375-.282,2.762-.469,4.122ZM96.867,118.823c-.162-1.364-.3-2.753-.4-4.129l.687-.05c.1,1.366.232,2.744.394,4.1Zm180.474-6.686-.688-.031c.061-1.365.092-2.75.092-4.116h.689C277.433,109.366,277.4,110.761,277.34,112.136ZM96.261,110.551c-.024-.845-.035-1.707-.036-2.561q0-.8.014-1.588l.689.012q-.014.786-.014,1.575c0,.848.012,1.7.035,2.542Zm.83-8.25-.688-.043c.086-1.377.2-2.767.353-4.133l.685.074c-.147,1.355-.264,2.735-.35,4.1ZM276.3,98.1c-.138-1.358-.327-2.021-.527-3.373l.682-.1c.2,1.363.374,2.4.513,3.772ZM97.978,94.118l-.681-.105c.211-1.363.456-2.737.729-4.084l.675.137C98.431,91.4,98.187,92.766,97.978,94.118Zm177.1-3.45c-.263-1.344-.559-2.7-.881-4.021l.669-.163c.325,1.334.623,2.7.888,4.052ZM99.61,86.051l-.668-.168c.335-1.334.705-2.68,1.1-4l.66.2C100.31,83.391,99.942,84.727,99.61,86.051ZM273.13,82.67c-.384-1.312-.8-2.632-1.248-3.923l.651-.224c.447,1.3.871,2.631,1.258,3.953ZM101.982,78.157l-.65-.228c.458-1.3.952-2.611,1.469-3.89l.639.258c-.513,1.269-1,2.567-1.458,3.86Zm168.473-3.271c-.5-1.268-1.041-2.541-1.6-3.782l.628-.283c.564,1.252,1.106,2.534,1.612,3.811ZM105.074,70.51l-.626-.288c.575-1.253,1.188-2.51,1.82-3.735l.612.316C106.253,68.019,105.645,69.266,105.074,70.51ZM267.082,67.4c-.617-1.216-1.27-2.435-1.942-3.622l.6-.339c.677,1.2,1.335,2.424,1.957,3.65ZM108.856,63.184l-.6-.344c.687-1.193,1.412-2.388,2.154-3.55l.581.371C110.257,60.814,109.538,62,108.856,63.184Zm154.179-2.94c-.728-1.159-1.49-2.314-2.266-3.432l.566-.393c.781,1.127,1.55,2.29,2.283,3.458Zm-149.744-4-.563-.4c.794-1.127,1.625-2.249,2.469-3.337l.544.422C114.9,54.007,114.079,55.122,113.291,56.24Zm145.057-2.753c-.83-1.088-1.695-2.169-2.571-3.213l.528-.443c.882,1.053,1.753,2.142,2.59,3.238ZM118.339,49.732l-.525-.447c.891-1.047,1.82-2.089,2.761-3.1l.5.47C120.145,47.658,119.223,48.692,118.339,49.732Zm134.724-2.552c-.926-1.007-1.886-2.006-2.853-2.967l.486-.489c.975.969,1.942,1.975,2.875,2.99ZM123.956,43.712l-.482-.493c.985-.964,2-1.917,3.03-2.832l.459.514C125.945,41.81,124.933,42.756,123.956,43.712Zm123.269-2.336c-1.014-.92-2.062-1.827-3.113-2.7l.439-.531c1.059.876,2.114,1.79,3.136,2.717Zm-117.13-3.146-.435-.534c1.066-.868,2.167-1.724,3.273-2.544l.41.553C132.245,36.52,131.152,37.37,130.094,38.231Zm6.608-4.9-.385-.572c1.14-.767,2.315-1.519,3.49-2.234l.358.589C139,31.826,137.834,32.572,136.7,33.333Zm7.024-4.272-.331-.6c1.207-.66,2.444-1.3,3.677-1.9l.3.619c-1.224.6-2.452,1.234-3.649,1.89Zm83.152-1.6c-1.226-.611-2.482-1.2-3.733-1.754l.279-.63c1.261.557,2.526,1.152,3.762,1.767Zm-75.772-2.013-.274-.632c1.261-.547,2.551-1.071,3.834-1.558l.245.644C153.637,24.388,152.357,24.909,151.106,25.451Zm68.229-1.321c-1.276-.495-2.581-.967-3.881-1.4l.219-.653c1.309.44,2.625.915,3.911,1.414Zm-60.544-1.6-.215-.655c1.309-.429,2.645-.833,3.971-1.2l.184.664C161.416,21.705,160.09,22.106,158.791,22.533Zm52.731-1.024c-1.314-.375-2.654-.723-3.984-1.037l.158-.671c1.34.316,2.69.667,4.015,1.045Zm-44.8-1.177-.153-.672c1.342-.307,2.71-.586,4.064-.83l.122.678C169.411,19.75,168.054,20.027,166.722,20.331Zm36.789-.712c-1.342-.252-2.708-.476-4.062-.666l.1-.682c1.364.192,2.742.417,4.094.671Zm-28.689-.75-.091-.683c1.364-.182,2.751-.335,4.123-.455l.06.686C177.552,18.537,176.176,18.689,174.822,18.87Zm20.538-.4c-1.357-.128-2.739-.226-4.106-.293l.034-.688c1.378.067,2.769.166,4.137.295Zm-12.338-.32-.029-.688c1.266-.053,2.557-.08,3.836-.08h.312l0,.689h-.31c-1.27,0-2.551.027-3.807.079Z" transform="translate(-92.276 -17.386)" fill="#3f3d56"/>
    <path id="Path_2246" data-name="Path 2246" d="M470.32,92.5V315.8a10.038,10.038,0,0,1-10.035,10.028H369.629A10.018,10.018,0,0,1,359.594,315.8V92.5A10.035,10.035,0,0,1,369.63,82.462H383.2V84.2a8.264,8.264,0,0,0,8.262,8.265h46.107a8.2,8.2,0,0,0,4.9-1.612,7.682,7.682,0,0,0,.813-.682,8.24,8.24,0,0,0,2.549-5.97v-1.74h14.459A10.032,10.032,0,0,1,470.32,92.5Z" transform="translate(-264.914 -60.043)" fill="#3f3d56"/>
    <rect id="Rectangle_1996" data-name="Rectangle 1996" width="84.218" height="64.077" transform="translate(107.934 102.919)" fill="#f8b500"/>
    <path id="Path_2251" data-name="Path 2251" d="M338.168,321.112c-3.918,6.4-2.57,14.351-2.57,14.351s7.7-2.414,11.617-8.81,2.57-14.351,2.57-14.351S342.086,314.717,338.168,321.112Z" transform="translate(-249.038 -210.703)" fill="#3f3d56"/>
    <circle id="Ellipse_414" data-name="Ellipse 414" cx="6.546" cy="6.546" r="6.546" transform="translate(0 55.033)" fill="#3f3d56"/>
    <path id="Path_2253" data-name="Path 2253" d="M208.281,362.072l-41.088-3.424V298.385l41.088-2.054Z" transform="translate(-109.595 -194.244)" fill="#f8b500"/>
    <path id="Path_2254" data-name="Path 2254" d="M584.61,362.072l41.088-3.424V298.385l-41.088-2.054Z" transform="translate(-383.211 -194.244)" fill="#f8b500"/>
    <path id="Path_2255" data-name="Path 2255" d="M498.178,362.77a8.21,8.21,0,0,0-9.009-1.145,12.158,12.158,0,0,1-4,1.144,23.144,23.144,0,0,1,1.626-8.79l.182-.469h-2.415l-.069.254a26.746,26.746,0,0,0-.635,3.006,7.786,7.786,0,0,0-.505-1.276c-1.694-3.358-5.608-4.732-5.774-4.789l-.334-.114-.107.336c-.053.167-1.275,4.131.419,7.489a10.463,10.463,0,0,0,4.861,4.406,12.494,12.494,0,0,1-4.726-1.264,5.512,5.512,0,0,0-5.835.493,17.317,17.317,0,0,0-7.1,13.78c0,7,4.535,13.416,11.554,16.339a5.2,5.2,0,0,0,2,.4,5.3,5.3,0,0,0,2.706-.742,7.154,7.154,0,0,1,7.168-.014,5.285,5.285,0,0,0,4.706.331c6.978-2.934,11.487-9.336,11.487-16.31A17.067,17.067,0,0,0,498.178,362.77ZM485.09,354.2h.887a23.757,23.757,0,0,0-1.5,8.351h-.158a25.061,25.061,0,0,1,.772-8.351Zm-6.916,3.907a10.236,10.236,0,0,1-.473-6.614,8.6,8.6,0,0,1,5.51,10.925,10.237,10.237,0,0,1-5.037-4.312Zm14.454,33.4a4.589,4.589,0,0,1-4.089-.29,7.843,7.843,0,0,0-7.87.016,4.586,4.586,0,0,1-4.086.3c-6.761-2.815-11.13-8.979-11.13-15.7a16.633,16.633,0,0,1,6.823-13.231,4.773,4.773,0,0,1,2.889-.965,4.828,4.828,0,0,1,2.214.536,14.223,14.223,0,0,0,12.1.072,7.521,7.521,0,0,1,8.253,1.051,16.387,16.387,0,0,1,5.963,12.537C503.692,382.527,499.349,388.68,492.627,391.506Z" transform="translate(-333.852 -235.801)" fill="#fff"/>
    <path id="Path_2256" data-name="Path 2256" d="M293.893,357.927v-.809h.321V354.6a1.019,1.019,0,0,0-.544-.909,4.9,4.9,0,0,0-4.542,0,1.027,1.027,0,0,0-.586.929v2.5h.321v.732a5.615,5.615,0,0,0-4.1,5.429v5.452l.612.2-.612.408v1.638l.612.2-.612.408v1.638l.612.2-.612.408v12.479A3.676,3.676,0,0,0,288.435,390h5.412a3.667,3.667,0,0,0,3.663-3.663V373.845l-.612-.408.612-.2v-1.638l-.612-.408.612-.2v-1.638l-.612-.408.612-.2V363a5.39,5.39,0,0,0-3.617-5.07Zm-4.473-3.609a4.2,4.2,0,0,1,3.931-.017.336.336,0,0,1,.174.3v1.348h-4.295v-1.324A.336.336,0,0,1,289.42,354.318Zm7.4,13.917-1.478.492,1.478.985v.773l-1.478.493,1.478.985v.773l-1.478.492,1.478.985v12.118a2.977,2.977,0,0,1-2.974,2.974h-5.412a2.986,2.986,0,0,1-2.982-2.982v-12.11l1.478-.985-1.478-.492v-.773l1.478-.985-1.478-.493v-.773l1.478-.985-1.478-.493v-4.956a4.93,4.93,0,0,1,3.833-4.826l.267-.062v-1.273H293.2v1.319l.248.072A4.7,4.7,0,0,1,296.821,363Z" transform="translate(-215.863 -237.468)" fill="#fff"/>
    <path id="Path_2257" data-name="Path 2257" d="M713.552,381.419l-1.735-.347.408-.817-.8-.159.138-.827-.869-.145v-.785l-.7-.2.669-.836H709.5l.243-.606-.859-.143.291-1.021h-.929v-.953H707.9c-1.085,0-1.691,1.289-1.889,1.805-5.992,1.045-23.389,13.1-25.374,14.481a3.6,3.6,0,0,0-2.3.5l-.4.221.583.583-.174.521,1.071.4-.234.586.674.562-.606.454.911.547-.16.8,1.018.146v.8l.591.118-.295,1.033h.656v.817h.641l.29.87.3-.06c.693-.139,1.286-1.1,1.519-1.523,5.77-1.03,23.586-13.564,25.32-14.792,2.024.243,2.768-.3,2.848-.362l.329-.264-.787-.655Zm-3.56,1.331-.134-.018-.111.079c-.2.14-19.735,13.982-25.3,14.777l-.179.026-.081.161a4.134,4.134,0,0,1-.852,1.165l-.225-.675h-.448v-.817h-.432l.25-.873-.77-.154v-.833l-.888-.127.112-.562-.45-.27.483-.362-.959-.8.31-.775-1.108-.415.1-.3-.214-.214c.518-.215,1.143-.375,1.412-.214l.192.115.183-.129c.2-.137,19.6-13.71,25.44-14.506l.218-.03.065-.21a2.806,2.806,0,0,1,.959-1.43v.856h.7l-.253.885.775.129-.3.756h.745l-.42.525,1.2.343v.849l.765.128-.134.806.566.113-.409.817.988.2-.509.339.731.61A5.5,5.5,0,0,1,709.992,382.75Z" transform="translate(-473.584 -251.526)" fill="#fff"/>
    <circle id="Ellipse_415" data-name="Ellipse 415" cx="9.991" cy="9.991" r="9.991" transform="translate(140.053 176.297)" fill="#f8b500"/>
    <path id="Path_2258" data-name="Path 2258" d="M429.858,527.791h-5.3v-5.3h-1.973v5.3h-5.3v1.973h5.3v5.3h1.973v-5.3h5.3Z" transform="translate(-273.524 -342.489)" fill="#fff"/>
    <path id="Path_2259" data-name="Path 2259" d="M494.226,537.158l-5.168-2.412v1.378H477v2.067h12.057v1.378Z" transform="translate(-312.673 -350.525)" fill="#fff"/>
    <path id="Path_2260" data-name="Path 2260" d="M344.072,537.158l5.168-2.412v1.378H361.3v2.067H349.24v1.378Z" transform="translate(-225.538 -350.525)" fill="#fff"/>
    <rect id="Rectangle_1997" data-name="Rectangle 1997" width="252.519" height="0.689" transform="translate(23.783 265.868)" fill="#3f3d56"/>
    <rect id="Rectangle_1998" data-name="Rectangle 1998" width="66.144" height="0.689" transform="translate(116.971 55.033)" fill="#fff"/>
    <rect id="Rectangle_1999" data-name="Rectangle 1999" width="66.144" height="0.689" transform="translate(117.131 243.131)" fill="#fff"/>
    <path id="Path_2261" data-name="Path 2261" d="M916.742,525.632l-1.722,6.545s-6.2,13.78,0,14.469,6.546-17.914,6.546-17.914Z" transform="translate(-627.188 -350.54)" fill="#a0616a"/>
    <path id="Path_2262" data-name="Path 2262" d="M932.665,388.632l-12.4,48.919s4.823,1.378,7.234,3.1Z" transform="translate(-632.432 -260.737)" fill="#5c636e"/>
    <path id="Path_2263" data-name="Path 2263" d="M966.607,496.614l3.445,53.4s8.268,21.015,7.924,41c0,0-3.1,7.924-.689,9.3s3.79,2.411,2.411,3.445-2.411,3.445-1.378,4.134,1.378,1.723,1.033,1.723H969.019s2.067-5.168-1.034-6.546-1.378-4.823-1.378-4.823l-23.082-67.522-18.258,62.01s3.1,2.067.689,3.1-3.445-1.034-2.411,1.033-.344,3.1-.344,3.445-10.335-1.034-10.335-1.034,5.168-4.479,2.756-5.512-3.445-2.067-2.756-2.756,3.445-7.234,3.445-7.234,1.378-24.8,1.723-25.838,0-5.857,0-8.268-.345-12.058.689-14.469,2.067-32.039,7.579-35.484S966.607,496.614,966.607,496.614Z" transform="translate(-627.445 -331.513)" fill="#2f2e41"/>
    <path id="Path_2264" data-name="Path 2264" d="M890.469,791.139s6.89,14.125,2.067,15.847-11.024.344-12.4,2.412-16.536,4.479-16.881-.689,16.536-14.814,16.536-14.814l2.2-3.541Z" transform="translate(-595.059 -524.065)" fill="#2f2e41"/>
    <path id="Path_2265" data-name="Path 2265" d="M1052.469,821.139s6.89,14.125,2.067,15.847-11.024.344-12.4,2.411-16.536,4.479-16.881-.689,16.536-14.814,16.536-14.814l2.2-3.541Z" transform="translate(-701.249 -543.73)" fill="#2f2e41"/>
    <circle id="Ellipse_416" data-name="Ellipse 416" cx="11.369" cy="11.369" r="11.369" transform="translate(307.985 77.425)" fill="#a0616a"/>
    <path id="Path_2266" data-name="Path 2266" d="M921.97,275.246l-1.378,9.991-10.335,7.924-2.756-3.79V276.28Z" transform="translate(-594.865 -180.423)" fill="#a0616a"/>
    <path id="Path_2267" data-name="Path 2267" d="M961.7,324.388s10.679,1.033,16.192-2.756l11.024,65.111s-38.929,3.1-40.651,1.033V367.451l6.89-33.072Z" transform="translate(-650.786 -216.819)" fill="#f8b500"/>
    <path id="Path_2268" data-name="Path 2268" d="M1012.257,312.6l3.7,3.113s15.158,2.412,14.125,6.546l-4.134,48.919,1.378,16.536s-11.713-3.1-20.67,0-1.841-66.628-1.841-66.628S1013.031,313.617,1012.257,312.6Z" transform="translate(-686.101 -210.895)" fill="#5c636e"/>
    <path id="Path_2269" data-name="Path 2269" d="M957.522,323.541s-11.024,7.955-12.4,13.122-5.857,59.6-5.857,59.6,2.067-1.033,3.1.689S959.245,326.266,957.522,323.541Z" transform="translate(-644.886 -218.07)" fill="#5c636e"/>
    <path id="Path_2270" data-name="Path 2270" d="M1052.659,528.044l-2.47,8.058s-.631,15.023-8.9,12.956,2.411-19.637,2.411-19.637l2.412-3.789Z" transform="translate(-709.707 -350.54)" fill="#a0616a"/>
    <path id="Path_2271" data-name="Path 2271" d="M977.132,240.034a5.435,5.435,0,0,1-.757-3.834,11.619,11.619,0,0,0,.331-3.455,34.217,34.217,0,0,1,1.988-5.018c.994-1.8.521-2.556,3.645-3.124s1.846-4.639,10.082-.237a2.416,2.416,0,0,0,2.509.947c1.7-.331,2.319,2.035,2.319,2.035s1.136-.663,1.562.284,3.464-.568,3.464,5.822a26.459,26.459,0,0,1-3.457,12.1s.253-10.749-5.38-11.838-11.692-4.26-13.159-.189A31.032,31.032,0,0,1,977.132,240.034Z" transform="translate(-669.142 -151.735)" fill="#2f2e41"/>
    <ellipse id="Ellipse_417" data-name="Ellipse 417" cx="1.111" cy="1.481" rx="1.111" ry="1.481" transform="translate(328.689 87.892)" fill="#a0616a"/>
    <path id="Path_2272" data-name="Path 2272" d="M1061.5,333.5s5.512-1.378,7.234,7.924,3.79,35.828,3.79,35.828l-8.268,27.9s-8.268-4.479-9.991-3.79l6.506-24.226-5.473-24.694S1060.12,333.5,1061.5,333.5Z" transform="translate(-720.269 -224.548)" fill="#5c636e"/>
    <path id="Path_2273" data-name="Path 2273" d="M967.237,372.614l7.235,24.115-7.235,24.46,4.134-24.46Z" transform="translate(-634.022 -244.248)" opacity="0.15"/>
  </g>
</svg>
